<?xml version="1.0" encoding="UTF-8" standalone="no"?>
<!-- Created with Inkscape (http://www.inkscape.org/) -->

<svg
   xmlns:dc="http://purl.org/dc/elements/1.1/"
   xmlns:cc="http://creativecommons.org/ns#"
   xmlns:rdf="http://www.w3.org/1999/02/22-rdf-syntax-ns#"
   xmlns:svg="http://www.w3.org/2000/svg"
   xmlns="http://www.w3.org/2000/svg"
   xmlns:sodipodi="http://sodipodi.sourceforge.net/DTD/sodipodi-0.dtd"
   xmlns:inkscape="http://www.inkscape.org/namespaces/inkscape"
   width="210mm"
   height="297mm"
   viewBox="0 0 210 297"
   version="1.1"
   id="svg8"
   inkscape:version="0.92.2 2405546, 2018-03-11"
   sodipodi:docname="signal.svg">
  <sodipodi:namedview
     id="base"
     pagecolor="#ffffff"
     bordercolor="#666666"
     borderopacity="1.0"
     inkscape:pageopacity="0.0"
     inkscape:pageshadow="2"
     inkscape:zoom="0.1767767"
     inkscape:cx="458.71866"
     inkscape:cy="-1443.768"
     inkscape:document-units="mm"
     inkscape:current-layer="layer1"
     showgrid="false"
     inkscape:window-width="2560"
     inkscape:window-height="1411"
     inkscape:window-x="0"
     inkscape:window-y="0"
     inkscape:window-maximized="1"
     showborder="false" />
  <defs
     id="defs2" />
  <metadata
     id="metadata5">
    <rdf:RDF>
      <cc:Work
         rdf:about="">
        <dc:format>image/svg+xml</dc:format>
        <dc:type
           rdf:resource="http://purl.org/dc/dcmitype/StillImage" />
        <dc:title />
      </cc:Work>
    </rdf:RDF>
  </metadata>
  <g
     id="layer1"
     inkscape:groupmode="layer"
     inkscape:label="Layer 1">
    <rect
       style="opacity:1;fill:#000000;fill-opacity:1;fill-rule:nonzero;stroke:#ffffff;stroke-width:12;stroke-linecap:round;stroke-linejoin:bevel;stroke-miterlimit:4;stroke-dasharray:none;stroke-opacity:1"
       id="rect1339"
       width="1244.6"
       height="255.05833"
       x="-45.508335"
       y="227.83414"
       ry="3.4782407" />
    <text
       xml:space="preserve"
       style="font-style:normal;font-variant:normal;font-weight:normal;font-stretch:normal;font-size:77.6111145px;line-height:77.40001678%;font-family:'Linux Biolinum';-inkscape-font-specification:'Linux Biolinum';letter-spacing:0px;word-spacing:0px;fill:#ffffff;fill-opacity:1;stroke:none;stroke-width:0.26458332px;stroke-linecap:butt;stroke-linejoin:miter;stroke-opacity:1"
       x="152.38445"
       y="376.18066"
       id="text1133-7"><tspan
         sodipodi:role="line"
         x="152.38445"
         y="376.18066"
         style="font-size:77.6111145px;line-height:77.40001678%;fill:#ffffff;stroke-width:0.26458332px"
         id="tspan1161-9">Internet Health Report</tspan></text>
    <text
       xml:space="preserve"
       style="font-style:normal;font-variant:normal;font-weight:normal;font-stretch:normal;font-size:77.6111145px;line-height:77.40001678%;font-family:'Linux Biolinum';-inkscape-font-specification:'Linux Biolinum';letter-spacing:0px;word-spacing:0px;fill:#000000;fill-opacity:1;stroke:none;stroke-width:0.26458332px;stroke-linecap:butt;stroke-linejoin:miter;stroke-opacity:1"
       x="152.38445"
       y="646.2395"
       id="text1133-7-2"><tspan
         sodipodi:role="line"
         x="152.38445"
         y="646.2395"
         style="font-size:77.6111145px;line-height:77.40001678%;fill:#000000;stroke-width:0.26458332px"
         id="tspan1161-9-8">Internet Health Report</tspan></text>
    <text
       xml:space="preserve"
       style="font-style:normal;font-variant:normal;font-weight:normal;font-stretch:normal;font-size:63.50000381px;line-height:77.40001678%;font-family:'Linux Biolinum';-inkscape-font-specification:'Linux Biolinum';letter-spacing:0px;word-spacing:0px;fill:#000000;fill-opacity:1;stroke:none;stroke-width:0.26458332px;stroke-linecap:butt;stroke-linejoin:miter;stroke-opacity:1"
       x="153.71425"
       y="774.25812"
       id="text1133-7-2-9"><tspan
         sodipodi:role="line"
         x="153.71425"
         y="774.25812"
         style="font-size:63.50000381px;line-height:77.40001678%;fill:#000000;stroke-width:0.26458332px"
         id="tspan1161-9-8-3">Internet </tspan><tspan
         sodipodi:role="line"
         x="153.71425"
         y="823.4071"
         style="font-size:63.50000381px;line-height:77.40001678%;fill:#000000;stroke-width:0.26458332px"
         id="tspan1506">Health </tspan><tspan
         sodipodi:role="line"
         x="153.71425"
         y="872.55615"
         style="font-size:63.50000381px;line-height:77.40001678%;fill:#000000;stroke-width:0.26458332px"
         id="tspan1508">Report</tspan></text>
    <g
       id="g866"
       inkscape:export-xdpi="106.07777"
       inkscape:export-ydpi="106.07777">
      <path
         inkscape:connector-curvature="0"
         id="path1282-6-3-7-0"
         d="m 134.46875,628.25782 a 65.834095,65.834095 0 0 1 -65.834094,65.8341 65.834095,65.834095 0 0 1 -65.834088,-65.8341 65.834095,65.834095 0 0 1 65.834088,-65.83409 65.834095,65.834095 0 0 1 65.834094,65.83409 z"
         style="opacity:1;fill:#ffffff;fill-opacity:1;fill-rule:nonzero;stroke:#ffffff;stroke-width:12.00000095;stroke-linecap:round;stroke-linejoin:bevel;stroke-miterlimit:4;stroke-dasharray:none;stroke-opacity:1" />
      <g
         transform="translate(276.85698,516.80815)"
         style="fill:none;stroke:#dc0000;stroke-opacity:1"
         id="g1109-2-0-7-3-3">
        <path
           sodipodi:nodetypes="cccccccc"
           inkscape:connector-curvature="0"
           id="path817-9-6-5-6-6"
           d="m -266.08793,119.644 h 17.68164 l 4.45455,-17.13535 8.15111,31.3548 14.26117,-54.858345 16.86881,64.889115 8.61784,-33.15019 20.17312,0.34223"
           style="fill:none;fill-rule:evenodd;stroke:#dc0000;stroke-width:9.513;stroke-linecap:butt;stroke-linejoin:miter;stroke-miterlimit:4;stroke-dasharray:none;stroke-opacity:1" />
        <path
           inkscape:connector-curvature="0"
           id="path822-1-2-9-1-1"
           d="m -178.57099,111.44969 a 4.0271775,4.0271775 0 0 0 4.02718,4.02718 4.0271775,4.0271775 0 0 0 4.02716,-4.02718 4.0271775,4.0271775 0 0 0 -4.02716,-4.02718 4.0271775,4.0271775 0 0 0 -4.02718,4.02718 z"
           style="opacity:1;fill:#dc0000;fill-opacity:1;fill-rule:nonzero;stroke:#dc0000;stroke-width:11.41562176;stroke-linecap:round;stroke-linejoin:bevel;stroke-miterlimit:4;stroke-dasharray:none;stroke-opacity:1" />
      </g>
      <path
         style="opacity:1;fill:none;fill-opacity:1;fill-rule:nonzero;stroke:#333333;stroke-width:14;stroke-linecap:round;stroke-linejoin:bevel;stroke-miterlimit:4;stroke-dasharray:none;stroke-opacity:1"
         d="M 130.55252,628.2578 A 61.917858,61.917858 0 0 1 68.634654,690.17567 61.917858,61.917858 0 0 1 6.7168026,628.2578 61.917858,61.917858 0 0 1 68.634654,566.33995 61.917858,61.917858 0 0 1 130.55252,628.2578 Z"
         id="path815-2-6-2-2-0"
         inkscape:connector-curvature="0" />
    </g>
    <g
       id="g892"
       transform="translate(0,182.03383)">
      <path
         style="opacity:1;fill:#ffffff;fill-opacity:1;fill-rule:nonzero;stroke:#ffffff;stroke-width:12.00000095;stroke-linecap:round;stroke-linejoin:bevel;stroke-miterlimit:4;stroke-dasharray:none;stroke-opacity:1"
         d="m 134.46875,628.25782 a 65.834095,65.834095 0 0 1 -65.834094,65.8341 65.834095,65.834095 0 0 1 -65.834088,-65.8341 65.834095,65.834095 0 0 1 65.834088,-65.83409 65.834095,65.834095 0 0 1 65.834094,65.83409 z"
         id="path882"
         inkscape:connector-curvature="0" />
      <g
         id="g888"
         style="fill:none;stroke:#dc0000;stroke-opacity:1"
         transform="translate(276.85698,516.80815)">
        <path
           style="fill:none;fill-rule:evenodd;stroke:#dc0000;stroke-width:9.51299953;stroke-linecap:butt;stroke-linejoin:miter;stroke-miterlimit:4;stroke-dasharray:none;stroke-opacity:1"
           d="m -266.08793,119.644 h 17.68164 l 4.45455,-17.13535 8.15111,31.3548 14.26117,-54.858345 16.86881,64.889115 8.61784,-33.15019 20.17312,0.34223"
           id="path884"
           inkscape:connector-curvature="0"
           sodipodi:nodetypes="cccccccc" />
        <path
           style="opacity:1;fill:#dc0000;fill-opacity:1;fill-rule:nonzero;stroke:#dc0000;stroke-width:11.41562176;stroke-linecap:round;stroke-linejoin:bevel;stroke-miterlimit:4;stroke-dasharray:none;stroke-opacity:1"
           d="m -178.57099,111.44969 a 4.0271775,4.0271775 0 0 0 4.02718,4.02718 4.0271775,4.0271775 0 0 0 4.02716,-4.02718 4.0271775,4.0271775 0 0 0 -4.02716,-4.02718 4.0271775,4.0271775 0 0 0 -4.02718,4.02718 z"
           id="path886"
           inkscape:connector-curvature="0" />
      </g>
      <path
         inkscape:connector-curvature="0"
         id="path890"
         d="M 130.55252,628.2578 A 61.917858,61.917858 0 0 1 68.634654,690.17567 61.917858,61.917858 0 0 1 6.7168026,628.2578 61.917858,61.917858 0 0 1 68.634654,566.33995 61.917858,61.917858 0 0 1 130.55252,628.2578 Z"
         style="opacity:1;fill:none;fill-opacity:1;fill-rule:nonzero;stroke:#333333;stroke-width:14;stroke-linecap:round;stroke-linejoin:bevel;stroke-miterlimit:4;stroke-dasharray:none;stroke-opacity:1" />
    </g>
    <g
       id="g904"
       transform="translate(0,-270.05884)">
      <path
         style="opacity:1;fill:#ffffff;fill-opacity:1;fill-rule:nonzero;stroke:#ffffff;stroke-width:12.00000095;stroke-linecap:round;stroke-linejoin:bevel;stroke-miterlimit:4;stroke-dasharray:none;stroke-opacity:1"
         d="m 134.46875,628.25782 a 65.834095,65.834095 0 0 1 -65.834094,65.8341 65.834095,65.834095 0 0 1 -65.834088,-65.8341 65.834095,65.834095 0 0 1 65.834088,-65.83409 65.834095,65.834095 0 0 1 65.834094,65.83409 z"
         id="path894"
         inkscape:connector-curvature="0" />
      <g
         id="g900"
         style="fill:none;stroke:#dc0000;stroke-opacity:1"
         transform="translate(276.85698,516.80815)">
        <path
           style="fill:none;fill-rule:evenodd;stroke:#dc0000;stroke-width:9.51299953;stroke-linecap:butt;stroke-linejoin:miter;stroke-miterlimit:4;stroke-dasharray:none;stroke-opacity:1"
           d="m -266.08793,119.644 h 17.68164 l 4.45455,-17.13535 8.15111,31.3548 14.26117,-54.858345 16.86881,64.889115 8.61784,-33.15019 20.17312,0.34223"
           id="path896"
           inkscape:connector-curvature="0"
           sodipodi:nodetypes="cccccccc" />
        <path
           style="opacity:1;fill:#dc0000;fill-opacity:1;fill-rule:nonzero;stroke:#dc0000;stroke-width:11.41562176;stroke-linecap:round;stroke-linejoin:bevel;stroke-miterlimit:4;stroke-dasharray:none;stroke-opacity:1"
           d="m -178.57099,111.44969 a 4.0271775,4.0271775 0 0 0 4.02718,4.02718 4.0271775,4.0271775 0 0 0 4.02716,-4.02718 4.0271775,4.0271775 0 0 0 -4.02716,-4.02718 4.0271775,4.0271775 0 0 0 -4.02718,4.02718 z"
           id="path898"
           inkscape:connector-curvature="0" />
      </g>
      <path
         inkscape:connector-curvature="0"
         id="path902"
         d="M 130.55252,628.2578 A 61.917858,61.917858 0 0 1 68.634654,690.17567 61.917858,61.917858 0 0 1 6.7168026,628.2578 61.917858,61.917858 0 0 1 68.634654,566.33995 61.917858,61.917858 0 0 1 130.55252,628.2578 Z"
         style="opacity:1;fill:none;fill-opacity:1;fill-rule:nonzero;stroke:#333333;stroke-width:14;stroke-linecap:round;stroke-linejoin:bevel;stroke-miterlimit:4;stroke-dasharray:none;stroke-opacity:1" />
    </g>
  </g>
</svg>
